<svg t="1712130984342" class="icon" viewBox="0 0 1024 1024" version="1.1" xmlns="http://www.w3.org/2000/svg" p-id="5975" width="16" height="16"><path d="M901.850593 926.476283a48.761858 48.761858 0 0 1-48.761859 48.761859H170.422718a48.761858 48.761858 0 0 1-48.761858-48.761859V48.762834a48.761858 48.761858 0 0 1 48.761858-48.761859h418.864363a48.761858 48.761858 0 0 1 34.620919 14.140939l263.801654 263.801654a48.761858 48.761858 0 0 1 14.140939 34.620919V926.476283z" fill="#EBECF0" p-id="5976"></path><path d="M901.850593 926.476283v48.761859a48.761858 48.761858 0 0 1-48.761859 48.761858H170.422718a48.761858 48.761858 0 0 1-48.761858-48.761858v-48.761859a48.761858 48.761858 0 0 0 48.761858 48.761859h682.666016a48.761858 48.761858 0 0 0 48.761859-48.761859z" fill="#C1C7D0" p-id="5977"></path><path d="M24.137143 536.381417h975.237166v243.809291a48.761858 48.761858 0 0 1-48.761858 48.761859H72.899001a48.761858 48.761858 0 0 1-48.761858-48.761859v-243.809291z" fill="#36B37E" p-id="5978"></path><path d="M121.66086 536.381417V438.8577l-97.523717 97.523717h97.523717zM901.850593 536.381417l0.975237-97.523717 97.036098 97.523717H901.850593z" fill="#00875A" p-id="5979"></path><path d="M363.032058 602.697544a69.241839 69.241839 0 0 1 24.868548 45.348528h-30.232352a43.885672 43.885672 0 0 0-17.554269-27.30664 56.076137 56.076137 0 0 0-32.182827-8.289516 48.761858 48.761858 0 0 0-44.373291 20.47998 81.432303 81.432303 0 0 0-13.65332 48.761859 83.382778 83.382778 0 0 0 13.165702 48.761858 54.125663 54.125663 0 0 0 45.348528 19.017125 53.638044 53.638044 0 0 0 32.670445-9.752372 58.026611 58.026611 0 0 0 19.017125-32.182827h29.744733a82.895159 82.895159 0 0 1-29.257115 51.68757 80.944685 80.944685 0 0 1-51.68757 20.967599 83.870396 83.870396 0 0 1-69.729457-29.257115A105.813233 105.813233 0 0 1 219.184576 682.666992a105.813233 105.813233 0 0 1 20.967599-68.266602 81.919922 81.919922 0 0 1 68.266602-29.257115 83.870396 83.870396 0 0 1 54.613281 17.554269z" fill="#FFFFFF" p-id="5980"></path><path d="M901.850593 312.564487v6.82666h-263.801654a48.761858 48.761858 0 0 1-48.761858-48.761858V0.000975a48.761858 48.761858 0 0 1 34.620919 14.140939l264.289272 263.801654a48.761858 48.761858 0 0 1 13.653321 34.620919z" fill="#C1C7D0" p-id="5981"></path></svg>