<svg t="1711096962386" class="icon" viewBox="0 0 1024 1024" version="1.1" xmlns="http://www.w3.org/2000/svg" p-id="5794" width="16" height="16"><path d="M512 64a448 448 0 0 0 0 896A448 448 0 0 0 512 64z m-2.88 761.472c-36.48 0-66.112-28.992-66.112-64.768 0-35.712 29.568-64.768 66.112-64.768 36.48 0 66.112 29.056 66.112 64.768 0 35.776-29.568 64.768-66.112 64.768z m177.536-366.528c-12.992 20.416-40.448 48.128-82.688 83.2-21.824 18.176-35.456 32.768-40.704 43.904-5.248 11.008-7.68 30.784-7.168 59.328H461.952l-0.448-24.704c0-30.528 5.12-55.552 15.168-75.2 10.112-19.648 30.272-41.792 60.48-66.304 30.144-24.64 48.256-40.704 54.144-48.32 9.088-12.032 13.696-25.344 13.696-39.744 0-20.096-8.128-37.312-24.192-51.712-16.064-14.336-37.888-21.504-65.216-21.504-26.368 0-48.384 7.488-66.112 22.4-17.728 14.976-32.96 47.936-36.544 68.288-3.392 19.264-96.192 27.392-95.04-11.584 1.088-39.04 21.376-81.408 56.192-112.064 34.816-30.72 80.576-46.08 137.088-46.08 59.52 0 106.816 15.552 142.08 46.72 35.2 31.04 52.672 67.2 52.672 108.48 0.128 22.912-6.4 44.544-19.2 64.896z" fill="#2D8CF0" p-id="5795"></path></svg>