<svg t="1712133951404" class="icon" viewBox="0 0 1024 1024" version="1.1" xmlns="http://www.w3.org/2000/svg" p-id="41064" width="16" height="16"><path d="M511.997953-0.999768C229.234457-0.999768 0.010233 228.225479 0.010233 510.987952c0 282.763497 229.224224 511.988744 511.98772 511.988744s511.98772-229.225247 511.98772-511.988744C1023.985674 228.225479 794.762474-0.999768 511.997953-0.999768M511.997953 958.857481c-247.351033 0-447.869529-200.517472-447.869529-447.869529 0-247.351033 200.518495-447.868505 447.869529-447.868505 247.351033 0 447.869529 200.517472 447.869529 447.868505C959.867482 758.340009 759.348987 958.857481 511.997953 958.857481" fill="#108ee9" p-id="41065"></path><path d="M412.334269 402.371379c0 0 16.059735-98.830715 114.89045-87.711492 98.829692 11.1182 76.593293 85.241236 66.709198 100.06482-9.882048 24.707679-101.300971 84.006108-116.124555 119.831986-14.824607 35.825878-13.589479 102.537123-13.589479 102.537123l88.947644 0c0 0-4.941536-70.416629 44.473822-100.065843 49.415358-29.649215 133.420442-116.125579 96.359436-198.896558-59.298429-95.124307-117.360707-105.007379-192.718871-102.536099-75.358164 2.470256-154.422737 39.532286-180.365543 154.422737C382.685054 398.664972 412.334269 402.371379 412.334269 402.371379" fill="#108ee9" p-id="41066"></path><path d="M462.984754 670.448415l92.653028 0 0 101.287668-92.653028 0 0-101.287668Z" fill="#108ee9" p-id="41067"></path></svg>