<svg t="1711963865217" class="icon" viewBox="0 0 1024 1024" version="1.1" xmlns="http://www.w3.org/2000/svg" p-id="43211" width="16" height="16"><path d="M512 0C794.841212 0 1024 229.220848 1024 512 1024 794.841212 794.779152 1024 512 1024 229.158788 1024 0 794.779152 0 512 0 229.158788 229.220848 0 512 0z m-157.540848 539.61697h106.030545v287.464727h127.224242V539.61697h105.658182l16.197818-112.112485h-121.824969v-71.555879c0-18.183758 4.158061-31.806061 12.474182-40.897939 8.316121-9.091879 24.389818-13.653333 48.22109-13.653334h65.287758V201.479758c-22.434909-3.04097-54.054788-4.561455-94.797576-4.561455-47.972848 0-86.357333 12.939636-115.184485 38.818909-28.858182 25.879273-43.256242 62.308848-43.256242 109.257697v82.540606h-106.030545v112.112485z" fill="#5cc2f7" p-id="43212"></path></svg>
