<svg t="1709286116799" class="icon" viewBox="0 0 1024 1024" version="1.1" xmlns="http://www.w3.org/2000/svg" p-id="67311" width="16" height="16"><path d="M256 85.312c-47.04 0-85.312 38.336-85.312 85.376v682.624c0 47.104 38.272 85.376 85.312 85.376h267.072a296.32 296.32 0 0 1-41.152-85.312H256V170.688h298.688V384H768v85.312c29.632 0 58.24 4.544 85.312 12.608V341.312l-256-256H256z m512 469.376A211.2 211.2 0 0 0 554.688 768 211.264 211.264 0 0 0 768 981.376c42.688 0 85.376-12.864 119.488-34.176l76.8 76.8 59.712-59.712-76.8-76.8c21.312-34.112 34.112-76.8 34.112-119.488A211.2 211.2 0 0 0 768 554.688zM768 640c72.512 0 128 55.488 128 128s-55.488 128-128 128-128-55.488-128-128 55.488-128 128-128z" fill="#1296db" p-id="67312"></path></svg>