<svg t="1712133563460" class="icon" viewBox="0 0 1024 1024" version="1.1" xmlns="http://www.w3.org/2000/svg" p-id="27874" width="16" height="16"><path d="M504.081067 0C225.5872 0 0 225.5872 0 504.081067c0 278.357333 225.5872 504.046933 504.081067 504.046933s504.0128-225.6896 504.0128-504.046933C1008.093867 225.5872 782.574933 0 504.081067 0z m0 925.9008c-232.994133 0-421.853867-188.8256-421.853867-421.853867 0-233.0624 188.859733-421.956267 421.853867-421.956266s421.888 188.928 421.888 421.9904c0 232.994133-188.893867 421.819733-421.888 421.819733z" fill="#1296db" p-id="27875"></path><path d="M557.6704 613.102933l20.48-421.922133h-147.217067l20.548267 421.922133h106.1888z m-53.1456 46.455467c-49.322667 0-83.797333 34.5088-83.797333 84.821333 0 48.401067 33.518933 84.718933 81.851733 84.718934h1.9456c50.2784 0 82.875733-36.317867 82.875733-84.718934-0.9216-50.312533-33.518933-84.821333-82.875733-84.821333z" fill="#1296db" p-id="27876"></path></svg>