<svg t="1711964021564" class="icon" viewBox="0 0 1024 1024" version="1.1" xmlns="http://www.w3.org/2000/svg" p-id="70520" width="16" height="16"><path d="M512 0a512 512 0 1 0 512 512A512 512 0 0 0 512 0z m236.9536 617.0624q0 110.592-63.3856 165.1712-60.2112 51.2-173.3632 51.2a307.2 307.2 0 0 1-91.5456-12.8 201.0112 201.0112 0 0 1-91.5456-56.9344Q284.2624 713.3184 284.16 624.64V242.688h122.88v373.4528q0 56.9344 28.8768 86.1184a100.0448 100.0448 0 0 0 73.8304 29.2864q60.2112 0 88.3712-28.16t28.0576-81.92v-378.88h122.88z" fill="#67c8fb" p-id="70521" data-spm-anchor-id="a313x.search_index.0.i55.2fd13a81ahZPgh" class="selected"></path></svg>